<svg xmlns="http://www.w3.org/2000/svg" version="1.1" xmlns:xlink="http://www.w3.org/1999/xlink" width="512" height="512" x="0" y="0" viewBox="0 0 32 32" style="enable-background:new 0 0 512 512" xml:space="preserve" class=""><g><path d="M29 30H3a1 1 0 0 1-1-1V3a1 1 0 1 1 2 0v25h25a1 1 0 1 1 0 2z" fill="#068bcc" opacity="1" data-original="#000000" class=""></path><path d="M12 26a1 1 0 0 1-1-1V12H8v13a1 1 0 1 1-2 0V11a1 1 0 0 1 1-1h5a1 1 0 0 1 1 1v14a1 1 0 0 1-1 1zM20 26a1 1 0 0 1-1-1v-7h-3v7a1 1 0 1 1-2 0v-8a1 1 0 0 1 1-1h5a1 1 0 0 1 1 1v8a1 1 0 0 1-1 1zM28 26a1 1 0 0 1-1-1v-3h-3v3a1 1 0 1 1-2 0v-4a1 1 0 0 1 1-1h5a1 1 0 0 1 1 1v4a1 1 0 0 1-1 1z" fill="#068bcc" opacity="1" data-original="#000000" class=""></path><path d="M8.999 18a.998.998 0 0 1-.808-1.588l.725-.996A35.094 35.094 0 0 1 28.758 2.03a.999.999 0 1 1 .484 1.94 33.108 33.108 0 0 0-18.709 12.622l-.724.996a.998.998 0 0 1-.81.412z" fill="#068bcc" opacity="1" data-original="#000000" class=""></path></g></svg>