<svg width="14" height="16" viewBox="0 0 14 16" fill="none" xmlns="http://www.w3.org/2000/svg">
<path d="M4 0.5V2H10V0.5C10.0208 0.1875 10.1875 0.0208333 10.5 0C10.8125 0.0208333 10.9792 0.1875 11 0.5V2H12C12.5625 2.02083 13.0312 2.21875 13.4062 2.59375C13.7812 2.96875 13.9792 3.4375 14 4V5V6V14C13.9792 14.5625 13.7812 15.0312 13.4062 15.4062C13.0312 15.7812 12.5625 15.9792 12 16H2C1.4375 15.9792 0.96875 15.7812 0.59375 15.4062C0.21875 15.0312 0.0208333 14.5625 0 14V6V5V4C0.0208333 3.4375 0.21875 2.96875 0.59375 2.59375C0.96875 2.21875 1.4375 2.02083 2 2H3V0.5C3.02083 0.1875 3.1875 0.0208333 3.5 0C3.8125 0.0208333 3.97917 0.1875 4 0.5ZM1 6V14C1 14.2917 1.09375 14.5312 1.28125 14.7188C1.46875 14.9062 1.70833 15 2 15H12C12.2917 15 12.5312 14.9062 12.7188 14.7188C12.9062 14.5312 13 14.2917 13 14V6H1ZM2 3C1.70833 3 1.46875 3.09375 1.28125 3.28125C1.09375 3.46875 1 3.70833 1 4V5H13V4C13 3.70833 12.9062 3.46875 12.7188 3.28125C12.5312 3.09375 12.2917 3 12 3H2ZM3.25 8C3.10417 8.02083 3.02083 8.10417 3 8.25V10.75C3.02083 10.8958 3.10417 10.9792 3.25 11H10.75C10.8958 10.9792 10.9792 10.8958 11 10.75V8.25C10.9792 8.10417 10.8958 8.02083 10.75 8H3.25ZM2 8.25C2 7.89583 2.125 7.60417 2.375 7.375C2.60417 7.125 2.89583 7 3.25 7H10.75C11.1042 7 11.3958 7.125 11.625 7.375C11.875 7.60417 12 7.89583 12 8.25V10.75C12 11.1042 11.875 11.3958 11.625 11.625C11.3958 11.875 11.1042 12 10.75 12H3.25C2.89583 12 2.60417 11.875 2.375 11.625C2.125 11.3958 2 11.1042 2 10.75V8.25Z" fill="black"/>
</svg>
