<svg width="200" height="128" viewBox="0 0 200 128" fill="none" xmlns="http://www.w3.org/2000/svg">
<g filter="url(#filter0_d_1008_220)">
<rect width="180" height="108" transform="translate(10 8)" fill="white"/>
<path d="M32.43 53.5325C32.655 51.9725 33.09 50.6075 33.735 49.4375C34.38 48.2525 35.1825 47.27 36.1425 46.49C37.1175 45.695 38.2275 45.1025 39.4725 44.7125C40.7325 44.3075 42.0825 44.105 43.5225 44.105C45.0225 44.105 46.3725 44.3225 47.5725 44.7575C48.7875 45.1775 49.8225 45.77 50.6775 46.535C51.5325 47.285 52.185 48.17 52.635 49.19C53.1 50.21 53.3325 51.3125 53.3325 52.4975C53.3325 53.5325 53.2125 54.4475 52.9725 55.2425C52.7475 56.0225 52.4175 56.705 51.9825 57.29C51.5475 57.875 51.0075 58.37 50.3625 58.775C49.7175 59.18 48.99 59.5175 48.18 59.7875C50.13 60.4025 51.585 61.34 52.545 62.6C53.505 63.86 53.985 65.4425 53.985 67.3475C53.985 68.9675 53.685 70.4 53.085 71.645C52.485 72.89 51.675 73.94 50.655 74.795C49.635 75.635 48.45 76.2725 47.1 76.7075C45.765 77.1425 44.3475 77.36 42.8475 77.36C41.2125 77.36 39.7875 77.1725 38.5725 76.7975C37.3575 76.4225 36.3 75.8675 35.4 75.1325C34.5 74.3975 33.735 73.4975 33.105 72.4325C32.475 71.3675 31.935 70.1375 31.485 68.7425L33.9375 67.73C34.5825 67.46 35.1825 67.3925 35.7375 67.5275C36.3075 67.6475 36.72 67.9475 36.975 68.4275C37.245 68.9525 37.5375 69.47 37.8525 69.98C38.1825 70.49 38.5725 70.9475 39.0225 71.3525C39.4725 71.7425 39.9975 72.065 40.5975 72.32C41.2125 72.56 41.94 72.68 42.78 72.68C43.725 72.68 44.55 72.53 45.255 72.23C45.96 71.915 46.545 71.51 47.01 71.015C47.49 70.52 47.8425 69.9725 48.0675 69.3725C48.3075 68.7575 48.4275 68.1425 48.4275 67.5275C48.4275 66.7475 48.345 66.0425 48.18 65.4125C48.015 64.7675 47.67 64.22 47.145 63.77C46.62 63.32 45.8625 62.9675 44.8725 62.7125C43.8975 62.4575 42.585 62.33 40.935 62.33V58.37C42.3 58.355 43.4325 58.2275 44.3325 57.9875C45.2325 57.7475 45.945 57.4175 46.47 56.9975C47.01 56.5625 47.385 56.045 47.595 55.445C47.805 54.845 47.91 54.185 47.91 53.465C47.91 51.935 47.4825 50.7725 46.6275 49.9775C45.7725 49.1825 44.6325 48.785 43.2075 48.785C42.5475 48.785 41.94 48.8825 41.385 49.0775C40.83 49.2575 40.3275 49.52 39.8775 49.865C39.4425 50.195 39.075 50.585 38.775 51.035C38.475 51.485 38.25 51.98 38.1 52.52C37.845 53.21 37.5075 53.6675 37.0875 53.8925C36.6825 54.1175 36.105 54.17 35.355 54.05L32.43 53.5325ZM67.8485 56.2775L66.7235 57.6725C67.3535 57.3575 68.0285 57.1175 68.7485 56.9525C69.4835 56.7725 70.271 56.6825 71.111 56.6825C72.341 56.6825 73.5335 56.885 74.6885 57.29C75.8585 57.695 76.886 58.31 77.771 59.135C78.656 59.945 79.3685 60.9575 79.9085 62.1725C80.4485 63.3875 80.7185 64.805 80.7185 66.425C80.7185 67.94 80.441 69.365 79.886 70.7C79.331 72.02 78.551 73.175 77.546 74.165C76.541 75.155 75.326 75.935 73.901 76.505C72.491 77.075 70.931 77.36 69.221 77.36C67.481 77.36 65.921 77.0825 64.541 76.5275C63.161 75.9725 61.9835 75.2 61.0085 74.21C60.0335 73.205 59.2835 72.005 58.7585 70.61C58.2485 69.2 57.9935 67.64 57.9935 65.93C57.9935 64.4 58.301 62.8325 58.916 61.2275C59.546 59.6075 60.5135 57.9275 61.8185 56.1875L69.581 45.77C69.851 45.41 70.241 45.1025 70.751 44.8475C71.276 44.5925 71.876 44.465 72.551 44.465H77.501L67.8485 56.2775ZM69.1085 72.815C69.9935 72.815 70.8035 72.665 71.5385 72.365C72.2885 72.065 72.926 71.645 73.451 71.105C73.991 70.565 74.411 69.935 74.711 69.215C75.011 68.48 75.161 67.685 75.161 66.83C75.161 65.9 75.0185 65.0675 74.7335 64.3325C74.4485 63.5825 74.0435 62.9525 73.5185 62.4425C72.9935 61.9175 72.3635 61.52 71.6285 61.25C70.8935 60.98 70.0835 60.845 69.1985 60.845C68.3135 60.845 67.511 60.995 66.791 61.295C66.071 61.595 65.456 62.015 64.946 62.555C64.436 63.08 64.0385 63.71 63.7535 64.445C63.4685 65.165 63.326 65.945 63.326 66.785C63.326 67.685 63.446 68.51 63.686 69.26C63.941 69.995 64.3085 70.625 64.7885 71.15C65.2835 71.675 65.891 72.0875 66.611 72.3875C67.331 72.6725 68.1635 72.815 69.1085 72.815ZM107.182 60.7325C107.182 63.5675 106.875 66.035 106.26 68.135C105.66 70.22 104.82 71.945 103.74 73.31C102.675 74.675 101.407 75.695 99.937 76.37C98.482 77.03 96.907 77.36 95.212 77.36C93.517 77.36 91.942 77.03 90.487 76.37C89.047 75.695 87.7945 74.675 86.7295 73.31C85.6645 71.945 84.832 70.22 84.232 68.135C83.632 66.035 83.332 63.5675 83.332 60.7325C83.332 57.8825 83.632 55.415 84.232 53.33C84.832 51.245 85.6645 49.52 86.7295 48.155C87.7945 46.79 89.047 45.7775 90.487 45.1175C91.942 44.4425 93.517 44.105 95.212 44.105C96.907 44.105 98.482 44.4425 99.937 45.1175C101.407 45.7775 102.675 46.79 103.74 48.155C104.82 49.52 105.66 51.245 106.26 53.33C106.875 55.415 107.182 57.8825 107.182 60.7325ZM101.445 60.7325C101.445 58.3775 101.272 56.4275 100.927 54.8825C100.582 53.3375 100.117 52.1075 99.532 51.1925C98.962 50.2775 98.302 49.64 97.552 49.28C96.802 48.905 96.022 48.7175 95.212 48.7175C94.417 48.7175 93.6445 48.905 92.8945 49.28C92.1595 49.64 91.507 50.2775 90.937 51.1925C90.367 52.1075 89.9095 53.3375 89.5645 54.8825C89.2345 56.4275 89.0695 58.3775 89.0695 60.7325C89.0695 63.0875 89.2345 65.0375 89.5645 66.5825C89.9095 68.1275 90.367 69.3575 90.937 70.2725C91.507 71.1875 92.1595 71.8325 92.8945 72.2075C93.6445 72.5675 94.417 72.7475 95.212 72.7475C96.022 72.7475 96.802 72.5675 97.552 72.2075C98.302 71.8325 98.962 71.1875 99.532 70.2725C100.117 69.3575 100.582 68.1275 100.927 66.5825C101.272 65.0375 101.445 63.0875 101.445 60.7325ZM117.986 58.1H119.403C119.973 58.1 120.446 58.025 120.821 57.875C121.196 57.71 121.518 57.455 121.788 57.11L130.766 45.7475C131.141 45.2675 131.531 44.9375 131.936 44.7575C132.356 44.5625 132.881 44.465 133.511 44.465H138.731L127.773 57.9875C127.128 58.8125 126.461 59.3975 125.771 59.7425C126.266 59.9225 126.708 60.1775 127.098 60.5075C127.503 60.8225 127.886 61.2425 128.246 61.7675L139.541 77H134.208C133.488 77 132.948 76.9025 132.588 76.7075C132.243 76.4975 131.951 76.1975 131.711 75.8075L122.508 63.7925C122.223 63.3875 121.893 63.1025 121.518 62.9375C121.143 62.7725 120.603 62.69 119.898 62.69H117.986V77H111.933V44.465H117.986V58.1ZM163.19 63.95H154.46V73.22H149.938V63.95H141.253V59.8325H149.938V50.6075H154.46V59.8325H163.19V63.95ZM32.79 91.71C33.078 91.086 33.432 90.6 33.852 90.252C34.272 89.898 34.785 89.721 35.391 89.721C35.583 89.721 35.766 89.742 35.94 89.784C36.12 89.826 36.279 89.892 36.417 89.982L36.3 91.179C36.264 91.329 36.174 91.404 36.03 91.404C35.946 91.404 35.823 91.386 35.661 91.35C35.499 91.314 35.316 91.296 35.112 91.296C34.824 91.296 34.566 91.338 34.338 91.422C34.116 91.506 33.915 91.632 33.735 91.8C33.561 91.962 33.402 92.166 33.258 92.412C33.12 92.652 32.994 92.928 32.88 93.24V99H31.269V89.883H32.187C32.361 89.883 32.481 89.916 32.547 89.982C32.613 90.048 32.658 90.162 32.682 90.324L32.79 91.71ZM42.626 94.896C41.888 94.92 41.258 94.98 40.736 95.076C40.22 95.166 39.797 95.286 39.467 95.436C39.143 95.586 38.906 95.763 38.756 95.967C38.612 96.171 38.54 96.399 38.54 96.651C38.54 96.891 38.579 97.098 38.657 97.272C38.735 97.446 38.84 97.59 38.972 97.704C39.11 97.812 39.269 97.893 39.449 97.947C39.635 97.995 39.833 98.019 40.043 98.019C40.325 98.019 40.583 97.992 40.817 97.938C41.051 97.878 41.27 97.794 41.474 97.686C41.684 97.578 41.882 97.449 42.068 97.299C42.26 97.149 42.446 96.978 42.626 96.786V94.896ZM37.451 91.17C37.955 90.684 38.498 90.321 39.08 90.081C39.662 89.841 40.307 89.721 41.015 89.721C41.525 89.721 41.978 89.805 42.374 89.973C42.77 90.141 43.103 90.375 43.373 90.675C43.643 90.975 43.847 91.338 43.985 91.764C44.123 92.19 44.192 92.658 44.192 93.168V99H43.481C43.325 99 43.205 98.976 43.121 98.928C43.037 98.874 42.971 98.772 42.923 98.622L42.743 97.758C42.503 97.98 42.269 98.178 42.041 98.352C41.813 98.52 41.573 98.664 41.321 98.784C41.069 98.898 40.799 98.985 40.511 99.045C40.229 99.111 39.914 99.144 39.566 99.144C39.212 99.144 38.879 99.096 38.567 99C38.255 98.898 37.982 98.748 37.748 98.55C37.52 98.352 37.337 98.103 37.199 97.803C37.067 97.497 37.001 97.137 37.001 96.723C37.001 96.363 37.1 96.018 37.298 95.688C37.496 95.352 37.817 95.055 38.261 94.797C38.705 94.539 39.284 94.329 39.998 94.167C40.712 93.999 41.588 93.903 42.626 93.879V93.168C42.626 92.46 42.473 91.926 42.167 91.566C41.861 91.2 41.414 91.017 40.826 91.017C40.43 91.017 40.097 91.068 39.827 91.17C39.563 91.266 39.332 91.377 39.134 91.503C38.942 91.623 38.774 91.734 38.63 91.836C38.492 91.932 38.354 91.98 38.216 91.98C38.108 91.98 38.015 91.953 37.937 91.899C37.859 91.839 37.793 91.767 37.739 91.683L37.451 91.17ZM54.9692 99H53.3672V91.224H48.6692V96.696C48.6692 97.08 48.7622 97.365 48.9482 97.551C49.1342 97.737 49.3742 97.83 49.6682 97.83C49.8362 97.83 49.9802 97.809 50.1002 97.767C50.2262 97.719 50.3342 97.668 50.4242 97.614C50.5142 97.56 50.5892 97.512 50.6492 97.47C50.7152 97.422 50.7722 97.398 50.8202 97.398C50.9042 97.398 50.9792 97.449 51.0452 97.551L51.5132 98.316C51.2372 98.574 50.9042 98.778 50.5142 98.928C50.1242 99.072 49.7222 99.144 49.3082 99.144C48.5882 99.144 48.0332 98.943 47.6432 98.541C47.2592 98.139 47.0672 97.56 47.0672 96.804V91.224H45.9692C45.8732 91.224 45.7922 91.197 45.7262 91.143C45.6602 91.083 45.6272 90.993 45.6272 90.873V90.234L47.1212 90.036L47.4902 87.228C47.5082 87.138 47.5472 87.066 47.6072 87.012C47.6732 86.952 47.7572 86.922 47.8592 86.922H48.6692V90.063H54.9692V99ZM55.3652 86.958C55.3652 87.114 55.3322 87.261 55.2662 87.399C55.2062 87.531 55.1222 87.648 55.0142 87.75C54.9122 87.852 54.7922 87.933 54.6542 87.993C54.5162 88.053 54.3692 88.083 54.2132 88.083C54.0572 88.083 53.9102 88.053 53.7722 87.993C53.6402 87.933 53.5232 87.852 53.4212 87.75C53.3192 87.648 53.2382 87.531 53.1782 87.399C53.1182 87.261 53.0882 87.114 53.0882 86.958C53.0882 86.802 53.1182 86.655 53.1782 86.517C53.2382 86.373 53.3192 86.25 53.4212 86.148C53.5232 86.04 53.6402 85.956 53.7722 85.896C53.9102 85.836 54.0572 85.806 54.2132 85.806C54.3692 85.806 54.5162 85.836 54.6542 85.896C54.7922 85.956 54.9122 86.04 55.0142 86.148C55.1222 86.25 55.2062 86.373 55.2662 86.517C55.3322 86.655 55.3652 86.802 55.3652 86.958ZM59.113 91.206C59.311 90.984 59.521 90.783 59.743 90.603C59.965 90.423 60.199 90.27 60.445 90.144C60.697 90.012 60.961 89.913 61.237 89.847C61.519 89.775 61.822 89.739 62.146 89.739C62.644 89.739 63.082 89.823 63.46 89.991C63.844 90.153 64.162 90.387 64.414 90.693C64.672 90.993 64.867 91.356 64.999 91.782C65.131 92.208 65.197 92.679 65.197 93.195V99H63.586V93.195C63.586 92.505 63.427 91.971 63.109 91.593C62.797 91.209 62.32 91.017 61.678 91.017C61.204 91.017 60.76 91.131 60.346 91.359C59.938 91.587 59.56 91.896 59.212 92.286V99H57.601V89.883H58.564C58.792 89.883 58.933 89.994 58.987 90.216L59.113 91.206ZM70.8151 94.545C71.1391 94.545 71.4241 94.5 71.6701 94.41C71.9161 94.32 72.1231 94.194 72.2911 94.032C72.4591 93.87 72.5851 93.678 72.6691 93.456C72.7531 93.228 72.7951 92.979 72.7951 92.709C72.7951 92.151 72.6241 91.707 72.2821 91.377C71.9461 91.047 71.4571 90.882 70.8151 90.882C70.1671 90.882 69.6721 91.047 69.3301 91.377C68.9941 91.707 68.8261 92.151 68.8261 92.709C68.8261 92.979 68.8681 93.228 68.9521 93.456C69.0421 93.678 69.1711 93.87 69.3391 94.032C69.5071 94.194 69.7141 94.32 69.9601 94.41C70.2061 94.5 70.4911 94.545 70.8151 94.545ZM73.7041 99.495C73.7041 99.273 73.6411 99.093 73.5151 98.955C73.3891 98.817 73.2181 98.709 73.0021 98.631C72.7921 98.553 72.5461 98.499 72.2641 98.469C71.9821 98.433 71.6821 98.406 71.3641 98.388C71.0521 98.37 70.7341 98.352 70.4101 98.334C70.0861 98.316 69.7741 98.286 69.4741 98.244C69.1381 98.4 68.8621 98.598 68.6461 98.838C68.4361 99.072 68.3311 99.348 68.3311 99.666C68.3311 99.87 68.3821 100.059 68.4841 100.233C68.5921 100.413 68.7541 100.566 68.9701 100.692C69.1861 100.824 69.4561 100.926 69.7801 100.998C70.1101 101.076 70.4971 101.115 70.9411 101.115C71.3731 101.115 71.7601 101.076 72.1021 100.998C72.4441 100.92 72.7321 100.809 72.9661 100.665C73.2061 100.521 73.3891 100.35 73.5151 100.152C73.6411 99.954 73.7041 99.735 73.7041 99.495ZM75.3331 90.243V90.837C75.3331 91.035 75.2071 91.161 74.9551 91.215L73.9201 91.35C74.1241 91.746 74.2261 92.184 74.2261 92.664C74.2261 93.108 74.1391 93.513 73.9651 93.879C73.7971 94.239 73.5631 94.548 73.2631 94.806C72.9631 95.064 72.6031 95.262 72.1831 95.4C71.7631 95.538 71.3071 95.607 70.8151 95.607C70.3891 95.607 69.9871 95.556 69.6091 95.454C69.4171 95.574 69.2701 95.703 69.1681 95.841C69.0661 95.973 69.0151 96.108 69.0151 96.246C69.0151 96.462 69.1021 96.627 69.2761 96.741C69.4561 96.849 69.6901 96.927 69.9781 96.975C70.2661 97.023 70.5931 97.053 70.9591 97.065C71.3311 97.077 71.7091 97.098 72.0931 97.128C72.4831 97.152 72.8611 97.197 73.2271 97.263C73.5991 97.329 73.9291 97.437 74.2171 97.587C74.5051 97.737 74.7361 97.944 74.9101 98.208C75.0901 98.472 75.1801 98.814 75.1801 99.234C75.1801 99.624 75.0811 100.002 74.8831 100.368C74.6911 100.734 74.4121 101.058 74.0461 101.34C73.6801 101.628 73.2301 101.856 72.6961 102.024C72.1681 102.198 71.5711 102.285 70.9051 102.285C70.2391 102.285 69.6571 102.219 69.1591 102.087C68.6611 101.955 68.2471 101.778 67.9171 101.556C67.5871 101.334 67.3381 101.076 67.1701 100.782C67.0081 100.494 66.9271 100.191 66.9271 99.873C66.9271 99.423 67.0681 99.042 67.3501 98.73C67.6321 98.418 68.0191 98.169 68.5111 97.983C68.2411 97.863 68.0251 97.704 67.8631 97.506C67.7071 97.302 67.6291 97.029 67.6291 96.687C67.6291 96.555 67.6531 96.42 67.7011 96.282C67.7491 96.138 67.8211 95.997 67.9171 95.859C68.0191 95.715 68.1421 95.58 68.2861 95.454C68.4301 95.328 68.5981 95.217 68.7901 95.121C68.3401 94.869 67.9891 94.536 67.7371 94.122C67.4851 93.702 67.3591 93.216 67.3591 92.664C67.3591 92.22 67.4431 91.818 67.6111 91.458C67.7851 91.092 68.0251 90.783 68.3311 90.531C68.6371 90.273 69.0001 90.075 69.4201 89.937C69.8461 89.799 70.3111 89.73 70.8151 89.73C71.2111 89.73 71.5801 89.775 71.9221 89.865C72.2641 89.949 72.5761 90.075 72.8581 90.243H75.3331ZM82.2997 91.386C82.2277 91.518 82.1167 91.584 81.9667 91.584C81.8767 91.584 81.7747 91.551 81.6607 91.485C81.5467 91.419 81.4057 91.347 81.2377 91.269C81.0757 91.185 80.8807 91.11 80.6527 91.044C80.4247 90.972 80.1547 90.936 79.8427 90.936C79.5727 90.936 79.3297 90.972 79.1137 91.044C78.8977 91.11 78.7117 91.203 78.5557 91.323C78.4057 91.443 78.2887 91.584 78.2047 91.746C78.1267 91.902 78.0877 92.073 78.0877 92.259C78.0877 92.493 78.1537 92.688 78.2857 92.844C78.4237 93 78.6037 93.135 78.8257 93.249C79.0477 93.363 79.2997 93.465 79.5817 93.555C79.8637 93.639 80.1517 93.732 80.4457 93.834C80.7457 93.93 81.0367 94.038 81.3187 94.158C81.6007 94.278 81.8527 94.428 82.0747 94.608C82.2967 94.788 82.4737 95.01 82.6057 95.274C82.7437 95.532 82.8127 95.844 82.8127 96.21C82.8127 96.63 82.7377 97.02 82.5877 97.38C82.4377 97.734 82.2157 98.043 81.9217 98.307C81.6277 98.565 81.2677 98.769 80.8417 98.919C80.4157 99.069 79.9237 99.144 79.3657 99.144C78.7297 99.144 78.1537 99.042 77.6377 98.838C77.1217 98.628 76.6837 98.361 76.3237 98.037L76.7017 97.425C76.7497 97.347 76.8067 97.287 76.8727 97.245C76.9387 97.203 77.0227 97.182 77.1247 97.182C77.2327 97.182 77.3467 97.224 77.4667 97.308C77.5867 97.392 77.7307 97.485 77.8987 97.587C78.0727 97.689 78.2827 97.782 78.5287 97.866C78.7747 97.95 79.0807 97.992 79.4467 97.992C79.7587 97.992 80.0317 97.953 80.2657 97.875C80.4997 97.791 80.6947 97.68 80.8507 97.542C81.0067 97.404 81.1207 97.245 81.1927 97.065C81.2707 96.885 81.3097 96.693 81.3097 96.489C81.3097 96.237 81.2407 96.03 81.1027 95.868C80.9707 95.7 80.7937 95.559 80.5717 95.445C80.3497 95.325 80.0947 95.223 79.8067 95.139C79.5247 95.049 79.2337 94.956 78.9337 94.86C78.6397 94.764 78.3487 94.656 78.0607 94.536C77.7787 94.41 77.5267 94.254 77.3047 94.068C77.0827 93.882 76.9027 93.654 76.7647 93.384C76.6327 93.108 76.5667 92.775 76.5667 92.385C76.5667 92.037 76.6387 91.704 76.7827 91.386C76.9267 91.062 77.1367 90.78 77.4127 90.54C77.6887 90.294 78.0277 90.099 78.4297 89.955C78.8317 89.811 79.2907 89.739 79.8067 89.739C80.4067 89.739 80.9437 89.835 81.4177 90.027C81.8977 90.213 82.3117 90.471 82.6597 90.801L82.2997 91.386ZM93.2253 89.739C93.8913 89.739 94.4913 89.85 95.0253 90.072C95.5593 90.294 96.0153 90.609 96.3933 91.017C96.7713 91.425 97.0593 91.92 97.2573 92.502C97.4613 93.078 97.5633 93.723 97.5633 94.437C97.5633 95.157 97.4613 95.805 97.2573 96.381C97.0593 96.957 96.7713 97.449 96.3933 97.857C96.0153 98.265 95.5593 98.58 95.0253 98.802C94.4913 99.018 93.8913 99.126 93.2253 99.126C92.5533 99.126 91.9473 99.018 91.4073 98.802C90.8733 98.58 90.4173 98.265 90.0393 97.857C89.6613 97.449 89.3703 96.957 89.1663 96.381C88.9683 95.805 88.8693 95.157 88.8693 94.437C88.8693 93.723 88.9683 93.078 89.1663 92.502C89.3703 91.92 89.6613 91.425 90.0393 91.017C90.4173 90.609 90.8733 90.294 91.4073 90.072C91.9473 89.85 92.5533 89.739 93.2253 89.739ZM93.2253 97.875C94.1253 97.875 94.7973 97.575 95.2413 96.975C95.6853 96.369 95.9073 95.526 95.9073 94.446C95.9073 93.36 95.6853 92.514 95.2413 91.908C94.7973 91.302 94.1253 90.999 93.2253 90.999C92.7693 90.999 92.3703 91.077 92.0283 91.233C91.6923 91.389 91.4103 91.614 91.1823 91.908C90.9603 92.202 90.7923 92.565 90.6783 92.997C90.5703 93.423 90.5163 93.906 90.5163 94.446C90.5163 95.526 90.7383 96.369 91.1823 96.975C91.6323 97.575 92.3133 97.875 93.2253 97.875ZM101.107 91.206C101.305 90.984 101.515 90.783 101.737 90.603C101.959 90.423 102.193 90.27 102.439 90.144C102.691 90.012 102.955 89.913 103.231 89.847C103.513 89.775 103.816 89.739 104.14 89.739C104.638 89.739 105.076 89.823 105.454 89.991C105.838 90.153 106.156 90.387 106.408 90.693C106.666 90.993 106.861 91.356 106.993 91.782C107.125 92.208 107.191 92.679 107.191 93.195V99H105.58V93.195C105.58 92.505 105.421 91.971 105.103 91.593C104.791 91.209 104.314 91.017 103.672 91.017C103.198 91.017 102.754 91.131 102.34 91.359C101.932 91.587 101.554 91.896 101.206 92.286V99H99.5952V89.883H100.558C100.786 89.883 100.927 89.994 100.981 90.216L101.107 91.206ZM125.092 92.799V97.749C124.444 98.217 123.751 98.568 123.013 98.802C122.281 99.03 121.477 99.144 120.601 99.144C119.563 99.144 118.627 98.985 117.793 98.667C116.959 98.343 116.245 97.893 115.651 97.317C115.063 96.735 114.61 96.039 114.292 95.229C113.974 94.419 113.815 93.528 113.815 92.556C113.815 91.572 113.968 90.675 114.274 89.865C114.586 89.055 115.027 88.362 115.597 87.786C116.167 87.204 116.86 86.754 117.676 86.436C118.492 86.118 119.404 85.959 120.412 85.959C120.922 85.959 121.396 85.998 121.834 86.076C122.272 86.148 122.677 86.256 123.049 86.4C123.421 86.538 123.766 86.709 124.084 86.913C124.402 87.111 124.699 87.336 124.975 87.588L124.48 88.38C124.402 88.5 124.3 88.578 124.174 88.614C124.054 88.644 123.919 88.614 123.769 88.524C123.625 88.44 123.46 88.338 123.274 88.218C123.088 88.098 122.86 87.984 122.59 87.876C122.326 87.762 122.011 87.666 121.645 87.588C121.285 87.51 120.856 87.471 120.358 87.471C119.632 87.471 118.975 87.591 118.387 87.831C117.799 88.065 117.298 88.404 116.884 88.848C116.47 89.286 116.152 89.82 115.93 90.45C115.708 91.074 115.597 91.776 115.597 92.556C115.597 93.366 115.711 94.092 115.939 94.734C116.173 95.37 116.503 95.913 116.929 96.363C117.361 96.807 117.883 97.146 118.495 97.38C119.107 97.614 119.794 97.731 120.556 97.731C121.156 97.731 121.687 97.665 122.149 97.533C122.617 97.395 123.073 97.206 123.517 96.966V94.131H121.51C121.396 94.131 121.303 94.098 121.231 94.032C121.165 93.966 121.132 93.885 121.132 93.789V92.799H125.092ZM131.124 89.739C131.79 89.739 132.39 89.85 132.924 90.072C133.458 90.294 133.914 90.609 134.292 91.017C134.67 91.425 134.958 91.92 135.156 92.502C135.36 93.078 135.462 93.723 135.462 94.437C135.462 95.157 135.36 95.805 135.156 96.381C134.958 96.957 134.67 97.449 134.292 97.857C133.914 98.265 133.458 98.58 132.924 98.802C132.39 99.018 131.79 99.126 131.124 99.126C130.452 99.126 129.846 99.018 129.306 98.802C128.772 98.58 128.316 98.265 127.938 97.857C127.56 97.449 127.269 96.957 127.065 96.381C126.867 95.805 126.768 95.157 126.768 94.437C126.768 93.723 126.867 93.078 127.065 92.502C127.269 91.92 127.56 91.425 127.938 91.017C128.316 90.609 128.772 90.294 129.306 90.072C129.846 89.85 130.452 89.739 131.124 89.739ZM131.124 97.875C132.024 97.875 132.696 97.575 133.14 96.975C133.584 96.369 133.806 95.526 133.806 94.446C133.806 93.36 133.584 92.514 133.14 91.908C132.696 91.302 132.024 90.999 131.124 90.999C130.668 90.999 130.269 91.077 129.927 91.233C129.591 91.389 129.309 91.614 129.081 91.908C128.859 92.202 128.691 92.565 128.577 92.997C128.469 93.423 128.415 93.906 128.415 94.446C128.415 95.526 128.637 96.369 129.081 96.975C129.531 97.575 130.212 97.875 131.124 97.875ZM141.337 89.739C142.003 89.739 142.603 89.85 143.137 90.072C143.671 90.294 144.127 90.609 144.505 91.017C144.883 91.425 145.171 91.92 145.369 92.502C145.573 93.078 145.675 93.723 145.675 94.437C145.675 95.157 145.573 95.805 145.369 96.381C145.171 96.957 144.883 97.449 144.505 97.857C144.127 98.265 143.671 98.58 143.137 98.802C142.603 99.018 142.003 99.126 141.337 99.126C140.665 99.126 140.059 99.018 139.519 98.802C138.985 98.58 138.529 98.265 138.151 97.857C137.773 97.449 137.482 96.957 137.278 96.381C137.08 95.805 136.981 95.157 136.981 94.437C136.981 93.723 137.08 93.078 137.278 92.502C137.482 91.92 137.773 91.425 138.151 91.017C138.529 90.609 138.985 90.294 139.519 90.072C140.059 89.85 140.665 89.739 141.337 89.739ZM141.337 97.875C142.237 97.875 142.909 97.575 143.353 96.975C143.797 96.369 144.019 95.526 144.019 94.446C144.019 93.36 143.797 92.514 143.353 91.908C142.909 91.302 142.237 90.999 141.337 90.999C140.881 90.999 140.482 91.077 140.14 91.233C139.804 91.389 139.522 91.614 139.294 91.908C139.072 92.202 138.904 92.565 138.79 92.997C138.682 93.423 138.628 93.906 138.628 94.446C138.628 95.526 138.85 96.369 139.294 96.975C139.744 97.575 140.425 97.875 141.337 97.875ZM150.831 94.545C151.155 94.545 151.44 94.5 151.686 94.41C151.932 94.32 152.139 94.194 152.307 94.032C152.475 93.87 152.601 93.678 152.685 93.456C152.769 93.228 152.811 92.979 152.811 92.709C152.811 92.151 152.64 91.707 152.298 91.377C151.962 91.047 151.473 90.882 150.831 90.882C150.183 90.882 149.688 91.047 149.346 91.377C149.01 91.707 148.842 92.151 148.842 92.709C148.842 92.979 148.884 93.228 148.968 93.456C149.058 93.678 149.187 93.87 149.355 94.032C149.523 94.194 149.73 94.32 149.976 94.41C150.222 94.5 150.507 94.545 150.831 94.545ZM153.72 99.495C153.72 99.273 153.657 99.093 153.531 98.955C153.405 98.817 153.234 98.709 153.018 98.631C152.808 98.553 152.562 98.499 152.28 98.469C151.998 98.433 151.698 98.406 151.38 98.388C151.068 98.37 150.75 98.352 150.426 98.334C150.102 98.316 149.79 98.286 149.49 98.244C149.154 98.4 148.878 98.598 148.662 98.838C148.452 99.072 148.347 99.348 148.347 99.666C148.347 99.87 148.398 100.059 148.5 100.233C148.608 100.413 148.77 100.566 148.986 100.692C149.202 100.824 149.472 100.926 149.796 100.998C150.126 101.076 150.513 101.115 150.957 101.115C151.389 101.115 151.776 101.076 152.118 100.998C152.46 100.92 152.748 100.809 152.982 100.665C153.222 100.521 153.405 100.35 153.531 100.152C153.657 99.954 153.72 99.735 153.72 99.495ZM155.349 90.243V90.837C155.349 91.035 155.223 91.161 154.971 91.215L153.936 91.35C154.14 91.746 154.242 92.184 154.242 92.664C154.242 93.108 154.155 93.513 153.981 93.879C153.813 94.239 153.579 94.548 153.279 94.806C152.979 95.064 152.619 95.262 152.199 95.4C151.779 95.538 151.323 95.607 150.831 95.607C150.405 95.607 150.003 95.556 149.625 95.454C149.433 95.574 149.286 95.703 149.184 95.841C149.082 95.973 149.031 96.108 149.031 96.246C149.031 96.462 149.118 96.627 149.292 96.741C149.472 96.849 149.706 96.927 149.994 96.975C150.282 97.023 150.609 97.053 150.975 97.065C151.347 97.077 151.725 97.098 152.109 97.128C152.499 97.152 152.877 97.197 153.243 97.263C153.615 97.329 153.945 97.437 154.233 97.587C154.521 97.737 154.752 97.944 154.926 98.208C155.106 98.472 155.196 98.814 155.196 99.234C155.196 99.624 155.097 100.002 154.899 100.368C154.707 100.734 154.428 101.058 154.062 101.34C153.696 101.628 153.246 101.856 152.712 102.024C152.184 102.198 151.587 102.285 150.921 102.285C150.255 102.285 149.673 102.219 149.175 102.087C148.677 101.955 148.263 101.778 147.933 101.556C147.603 101.334 147.354 101.076 147.186 100.782C147.024 100.494 146.943 100.191 146.943 99.873C146.943 99.423 147.084 99.042 147.366 98.73C147.648 98.418 148.035 98.169 148.527 97.983C148.257 97.863 148.041 97.704 147.879 97.506C147.723 97.302 147.645 97.029 147.645 96.687C147.645 96.555 147.669 96.42 147.717 96.282C147.765 96.138 147.837 95.997 147.933 95.859C148.035 95.715 148.158 95.58 148.302 95.454C148.446 95.328 148.614 95.217 148.806 95.121C148.356 94.869 148.005 94.536 147.753 94.122C147.501 93.702 147.375 93.216 147.375 92.664C147.375 92.22 147.459 91.818 147.627 91.458C147.801 91.092 148.041 90.783 148.347 90.531C148.653 90.273 149.016 90.075 149.436 89.937C149.862 89.799 150.327 89.73 150.831 89.73C151.227 89.73 151.596 89.775 151.938 89.865C152.28 89.949 152.592 90.075 152.874 90.243H155.349ZM158.661 85.743V99H157.059V85.743H158.661ZM167.361 93.447C167.361 93.075 167.307 92.736 167.199 92.43C167.097 92.118 166.944 91.851 166.74 91.629C166.542 91.401 166.299 91.227 166.011 91.107C165.723 90.981 165.396 90.918 165.03 90.918C164.262 90.918 163.653 91.143 163.203 91.593C162.759 92.037 162.483 92.655 162.375 93.447H167.361ZM168.657 97.722C168.459 97.962 168.222 98.172 167.946 98.352C167.67 98.526 167.373 98.67 167.055 98.784C166.743 98.898 166.419 98.982 166.083 99.036C165.747 99.096 165.414 99.126 165.084 99.126C164.454 99.126 163.872 99.021 163.338 98.811C162.81 98.595 162.351 98.283 161.961 97.875C161.577 97.461 161.277 96.951 161.061 96.345C160.845 95.739 160.737 95.043 160.737 94.257C160.737 93.621 160.833 93.027 161.025 92.475C161.223 91.923 161.505 91.446 161.871 91.044C162.237 90.636 162.684 90.318 163.212 90.09C163.74 89.856 164.334 89.739 164.994 89.739C165.54 89.739 166.044 89.832 166.506 90.018C166.974 90.198 167.376 90.462 167.712 90.81C168.054 91.152 168.321 91.578 168.513 92.088C168.705 92.592 168.801 93.168 168.801 93.816C168.801 94.068 168.774 94.236 168.72 94.32C168.666 94.404 168.564 94.446 168.414 94.446H162.321C162.339 95.022 162.417 95.523 162.555 95.949C162.699 96.375 162.897 96.732 163.149 97.02C163.401 97.302 163.701 97.515 164.049 97.659C164.397 97.797 164.787 97.866 165.219 97.866C165.621 97.866 165.966 97.821 166.254 97.731C166.548 97.635 166.8 97.533 167.01 97.425C167.22 97.317 167.394 97.218 167.532 97.128C167.676 97.032 167.799 96.984 167.901 96.984C168.033 96.984 168.135 97.035 168.207 97.137L168.657 97.722Z" fill="black"/>
<path d="M37.2891 20.8984L38.4844 24.625H42.1875C42.4531 24.6406 42.6328 24.7656 42.7266 25C42.7891 25.25 42.7266 25.4609 42.5391 25.6328L39.4688 28.0234L40.6641 31.7734C40.7266 32.0234 40.6562 32.2344 40.4531 32.4062C40.2188 32.5469 39.9922 32.5391 39.7734 32.3828L36.75 30.0156L33.7266 32.3828C33.5078 32.5391 33.2812 32.5469 33.0469 32.4062C32.8438 32.2344 32.7734 32.0234 32.8359 31.7734L34.0312 28.0234L30.9609 25.6328C30.7734 25.4609 30.7109 25.25 30.7734 25C30.8672 24.7656 31.0469 24.6406 31.3125 24.625H35.0391L36.2109 20.8984C36.3047 20.6484 36.4844 20.5156 36.75 20.5C37.0156 20.5156 37.1953 20.6484 37.2891 20.8984Z" fill="#FFCA1D"/>
<path d="M101.289 20.8984L102.484 24.625H106.188C106.453 24.6406 106.633 24.7656 106.727 25C106.789 25.25 106.727 25.4609 106.539 25.6328L103.469 28.0234L104.664 31.7734C104.727 32.0234 104.656 32.2344 104.453 32.4062C104.219 32.5469 103.992 32.5391 103.773 32.3828L100.75 30.0156L97.7266 32.3828C97.5078 32.5391 97.2812 32.5469 97.0469 32.4062C96.8438 32.2344 96.7734 32.0234 96.8359 31.7734L98.0312 28.0234L94.9609 25.6328C94.7734 25.4609 94.7109 25.25 94.7734 25C94.8672 24.7656 95.0469 24.6406 95.3125 24.625H99.0391L100.211 20.8984C100.305 20.6484 100.484 20.5156 100.75 20.5C101.016 20.5156 101.195 20.6484 101.289 20.8984Z" fill="#FFCA1D"/>
<path d="M53.2891 20.8984L54.4844 24.625H58.1875C58.4531 24.6406 58.6328 24.7656 58.7266 25C58.7891 25.25 58.7266 25.4609 58.5391 25.6328L55.4688 28.0234L56.6641 31.7734C56.7266 32.0234 56.6562 32.2344 56.4531 32.4062C56.2188 32.5469 55.9922 32.5391 55.7734 32.3828L52.75 30.0156L49.7266 32.3828C49.5078 32.5391 49.2812 32.5469 49.0469 32.4062C48.8438 32.2344 48.7734 32.0234 48.8359 31.7734L50.0312 28.0234L46.9609 25.6328C46.7734 25.4609 46.7109 25.25 46.7734 25C46.8672 24.7656 47.0469 24.6406 47.3125 24.625H51.0391L52.2109 20.8984C52.3047 20.6484 52.4844 20.5156 52.75 20.5C53.0156 20.5156 53.1953 20.6484 53.2891 20.8984Z" fill="#FFCA1D"/>
<path d="M85.2891 20.8984L86.4844 24.625H90.1875C90.4531 24.6406 90.6328 24.7656 90.7266 25C90.7891 25.25 90.7266 25.4609 90.5391 25.6328L87.4688 28.0234L88.6641 31.7734C88.7266 32.0234 88.6562 32.2344 88.4531 32.4062C88.2188 32.5469 87.9922 32.5391 87.7734 32.3828L84.75 30.0156L81.7266 32.3828C81.5078 32.5391 81.2812 32.5469 81.0469 32.4062C80.8438 32.2344 80.7734 32.0234 80.8359 31.7734L82.0312 28.0234L78.9609 25.6328C78.7734 25.4609 78.7109 25.25 78.7734 25C78.8672 24.7656 79.0469 24.6406 79.3125 24.625H83.0391L84.2109 20.8984C84.3047 20.6484 84.4844 20.5156 84.75 20.5C85.0156 20.5156 85.1953 20.6484 85.2891 20.8984Z" fill="#FFCA1D"/>
<path d="M63.3125 25.8906L62.9609 25.6328C62.7734 25.4609 62.7109 25.25 62.7734 25C62.8672 24.7656 63.0469 24.6406 63.3125 24.625H63.7578H63.8047H67.0391L68.0703 21.3672L68.0938 21.2734L68.2109 20.8984C68.3047 20.6484 68.4844 20.5156 68.75 20.5C69.0156 20.5156 69.1953 20.6484 69.2891 20.8984L69.4062 21.2734L69.4297 21.3672L70.4844 24.625H73.6953H73.7422H74.1875C74.4531 24.6406 74.6328 24.7656 74.7266 25C74.7891 25.25 74.7266 25.4609 74.5391 25.6328L74.1875 25.8906L74.1406 25.9375L71.4688 28.0234L72.5 31.2812V31.3047L72.5469 31.3984L72.6641 31.7734C72.7266 32.0234 72.6562 32.2344 72.4531 32.4062C72.2188 32.5469 71.9922 32.5391 71.7734 32.3828L71.4688 32.1484L71.3984 32.0781H71.375L68.75 30.0156L66.125 32.0781L66.0312 32.1484L65.7266 32.3828C65.5078 32.5391 65.2812 32.5469 65.0469 32.4062C64.8438 32.2344 64.7734 32.0234 64.8359 31.7734L64.9531 31.3984L65 31.3047V31.2812L66.0312 28.0234L63.3594 25.9375L63.3125 25.8906ZM68.75 28.375L69.5469 28.9844L70.6719 29.8516L70.2266 28.4219L69.9453 27.5312L70.6719 26.9688L72.0078 25.9375H70.4844H69.5234L69.2188 25.0234L68.75 23.5469V28.375Z" fill="#FFCA1D"/>
<path d="M113.47 27.226C113.47 28.082 113.578 28.914 113.794 29.722C114.014 30.53 114.334 31.298 114.754 32.026C114.818 32.15 114.834 32.244 114.802 32.308C114.77 32.376 114.724 32.43 114.664 32.47L114.19 32.758C113.89 32.298 113.634 31.842 113.422 31.39C113.214 30.938 113.044 30.484 112.912 30.028C112.784 29.572 112.69 29.114 112.63 28.654C112.57 28.19 112.54 27.714 112.54 27.226C112.54 26.742 112.57 26.268 112.63 25.804C112.69 25.34 112.784 24.882 112.912 24.43C113.044 23.974 113.214 23.52 113.422 23.068C113.634 22.616 113.89 22.158 114.19 21.694L114.664 21.988C114.724 22.028 114.77 22.082 114.802 22.15C114.834 22.214 114.818 22.306 114.754 22.426C114.334 23.154 114.014 23.922 113.794 24.73C113.578 25.538 113.47 26.37 113.47 27.226ZM119.579 27.898V24.352C119.579 24.248 119.583 24.134 119.591 24.01C119.599 23.886 119.611 23.76 119.627 23.632L116.495 27.898H119.579ZM121.817 27.898V28.51C121.817 28.574 121.797 28.628 121.757 28.672C121.721 28.716 121.663 28.738 121.583 28.738H120.515V31H119.579V28.738H115.763C115.683 28.738 115.613 28.716 115.553 28.672C115.497 28.624 115.461 28.566 115.445 28.498L115.337 27.952L119.519 22.402H120.515V27.898H121.817ZM122.826 30.34C122.826 30.236 122.844 30.138 122.88 30.046C122.92 29.954 122.972 29.874 123.036 29.806C123.104 29.738 123.184 29.684 123.276 29.644C123.368 29.604 123.466 29.584 123.57 29.584C123.674 29.584 123.772 29.604 123.864 29.644C123.956 29.684 124.036 29.738 124.104 29.806C124.172 29.874 124.226 29.954 124.266 30.046C124.306 30.138 124.326 30.236 124.326 30.34C124.326 30.448 124.306 30.548 124.266 30.64C124.226 30.728 124.172 30.806 124.104 30.874C124.036 30.942 123.956 30.994 123.864 31.03C123.772 31.07 123.674 31.09 123.57 31.09C123.466 31.09 123.368 31.07 123.276 31.03C123.184 30.994 123.104 30.942 123.036 30.874C122.972 30.806 122.92 30.728 122.88 30.64C122.844 30.548 122.826 30.448 122.826 30.34ZM128.476 30.244C128.756 30.244 129.006 30.206 129.226 30.13C129.45 30.05 129.638 29.94 129.79 29.8C129.946 29.656 130.064 29.486 130.144 29.29C130.228 29.09 130.27 28.87 130.27 28.63C130.27 28.334 130.22 28.082 130.12 27.874C130.024 27.662 129.892 27.49 129.724 27.358C129.56 27.226 129.37 27.13 129.154 27.07C128.938 27.006 128.712 26.974 128.476 26.974C128.24 26.974 128.014 27.006 127.798 27.07C127.582 27.13 127.39 27.226 127.222 27.358C127.058 27.49 126.926 27.662 126.826 27.874C126.73 28.082 126.682 28.334 126.682 28.63C126.682 28.87 126.722 29.09 126.802 29.29C126.886 29.486 127.004 29.656 127.156 29.8C127.312 29.94 127.5 30.05 127.72 30.13C127.944 30.206 128.196 30.244 128.476 30.244ZM128.476 23.134C128.22 23.134 127.994 23.172 127.798 23.248C127.606 23.324 127.444 23.428 127.312 23.56C127.184 23.692 127.086 23.846 127.018 24.022C126.954 24.198 126.922 24.386 126.922 24.586C126.922 24.782 126.95 24.972 127.006 25.156C127.062 25.34 127.152 25.504 127.276 25.648C127.4 25.788 127.56 25.902 127.756 25.99C127.956 26.074 128.196 26.116 128.476 26.116C128.756 26.116 128.994 26.074 129.19 25.99C129.39 25.902 129.552 25.788 129.676 25.648C129.8 25.504 129.89 25.34 129.946 25.156C130.002 24.972 130.03 24.782 130.03 24.586C130.03 24.386 129.996 24.198 129.928 24.022C129.864 23.846 129.766 23.692 129.634 23.56C129.506 23.428 129.344 23.324 129.148 23.248C128.956 23.172 128.732 23.134 128.476 23.134ZM129.706 26.518C130.242 26.67 130.654 26.924 130.942 27.28C131.23 27.636 131.374 28.092 131.374 28.648C131.374 29.024 131.302 29.364 131.158 29.668C131.018 29.968 130.82 30.224 130.564 30.436C130.312 30.648 130.008 30.812 129.652 30.928C129.296 31.04 128.904 31.096 128.476 31.096C128.048 31.096 127.656 31.04 127.3 30.928C126.944 30.812 126.638 30.648 126.382 30.436C126.126 30.224 125.928 29.968 125.788 29.668C125.648 29.364 125.578 29.024 125.578 28.648C125.578 28.092 125.722 27.636 126.01 27.28C126.298 26.924 126.71 26.67 127.246 26.518C126.794 26.35 126.452 26.1 126.22 25.768C125.992 25.432 125.878 25.032 125.878 24.568C125.878 24.252 125.94 23.956 126.064 23.68C126.188 23.404 126.364 23.164 126.592 22.96C126.82 22.756 127.092 22.596 127.408 22.48C127.728 22.364 128.084 22.306 128.476 22.306C128.864 22.306 129.218 22.364 129.538 22.48C129.858 22.596 130.132 22.756 130.36 22.96C130.588 23.164 130.764 23.404 130.888 23.68C131.012 23.956 131.074 24.252 131.074 24.568C131.074 25.032 130.958 25.432 130.726 25.768C130.498 26.1 130.158 26.35 129.706 26.518ZM133.691 27.226C133.691 26.37 133.581 25.538 133.361 24.73C133.145 23.922 132.827 23.154 132.407 22.426C132.375 22.366 132.355 22.314 132.347 22.27C132.339 22.222 132.341 22.182 132.353 22.15C132.365 22.114 132.383 22.084 132.407 22.06C132.435 22.032 132.465 22.008 132.497 21.988L132.971 21.694C133.271 22.158 133.525 22.616 133.733 23.068C133.945 23.52 134.115 23.974 134.243 24.43C134.375 24.882 134.471 25.34 134.531 25.804C134.591 26.268 134.621 26.742 134.621 27.226C134.621 27.714 134.591 28.19 134.531 28.654C134.471 29.114 134.375 29.572 134.243 30.028C134.115 30.484 133.945 30.938 133.733 31.39C133.525 31.842 133.271 32.298 132.971 32.758L132.497 32.47C132.465 32.45 132.435 32.426 132.407 32.398C132.383 32.374 132.365 32.344 132.353 32.308C132.341 32.276 132.339 32.236 132.347 32.188C132.355 32.14 132.375 32.086 132.407 32.026C132.827 31.298 133.145 30.53 133.361 29.722C133.581 28.914 133.691 28.082 133.691 27.226Z" fill="black"/>
</g>
<defs>
<filter id="filter0_d_1008_220" x="0" y="0" width="200" height="128" filterUnits="userSpaceOnUse" color-interpolation-filters="sRGB">
<feFlood flood-opacity="0" result="BackgroundImageFix"/>
<feColorMatrix in="SourceAlpha" type="matrix" values="0 0 0 0 0 0 0 0 0 0 0 0 0 0 0 0 0 0 127 0" result="hardAlpha"/>
<feOffset dy="2"/>
<feGaussianBlur stdDeviation="5"/>
<feComposite in2="hardAlpha" operator="out"/>
<feColorMatrix type="matrix" values="0 0 0 0 0 0 0 0 0 0 0 0 0 0 0 0 0 0 0.05 0"/>
<feBlend mode="normal" in2="BackgroundImageFix" result="effect1_dropShadow_1008_220"/>
<feBlend mode="normal" in="SourceGraphic" in2="effect1_dropShadow_1008_220" result="shape"/>
</filter>
</defs>
</svg>
