<svg width="14" height="14" viewBox="0 0 14 14" fill="none" xmlns="http://www.w3.org/2000/svg">
<path d="M13.7812 7.53125L8.28125 12.7812C7.90625 13.0729 7.55208 13.0729 7.21875 12.7812C6.92708 12.4062 6.92708 12.0521 7.21875 11.7188L11.375 7.75H0.75C0.291667 7.70833 0.0416667 7.45833 0 7C0.0416667 6.54167 0.291667 6.29167 0.75 6.25H11.375L7.25 2.28125C6.9375 1.94792 6.92708 1.59375 7.21875 1.21875C7.55208 0.927083 7.90625 0.927083 8.28125 1.21875L13.7812 6.46875C13.9271 6.61458 14 6.79167 14 7C14 7.20833 13.9271 7.38542 13.7812 7.53125Z" fill="#61BC5F"/>
</svg>
