<svg width="15" height="13" viewBox="0 0 15 13" fill="none" xmlns="http://www.w3.org/2000/svg">
<path d="M0.71875 7.03125L6.21875 12.2812C6.59375 12.5729 6.94792 12.5729 7.28125 12.2812C7.57292 11.9062 7.57292 11.5521 7.28125 11.2188L3.125 7.25H13.75C14.2083 7.20833 14.4583 6.95833 14.5 6.5C14.4583 6.04167 14.2083 5.79167 13.75 5.75H3.125L7.25 1.78125C7.5625 1.44792 7.57292 1.09375 7.28125 0.71875C6.94792 0.427083 6.59375 0.427083 6.21875 0.71875L0.71875 5.96875C0.572917 6.11458 0.5 6.29167 0.5 6.5C0.5 6.70833 0.572917 6.88542 0.71875 7.03125Z" fill="#4FA997"/>
</svg>
