<svg width="23" height="31" viewBox="0 0 23 31" fill="none" xmlns="http://www.w3.org/2000/svg">
<path d="M19.6875 12C19.6094 9.61719 18.7891 7.625 17.2266 6.02344C15.625 4.46094 13.6328 3.64062 11.25 3.5625C8.86719 3.64062 6.875 4.46094 5.27344 6.02344C3.71094 7.625 2.89062 9.61719 2.8125 12C2.8125 12.7422 3.10547 13.8555 3.69141 15.3398C4.35547 16.8242 5.19531 18.3867 6.21094 20.0273C7.07031 21.3945 7.92969 22.7031 8.78906 23.9531C9.6875 25.2031 10.5078 26.2969 11.25 27.2344C11.9922 26.2969 12.8125 25.2031 13.7109 23.9531C14.6094 22.7031 15.4688 21.3945 16.2891 20.0273C17.3047 18.3867 18.1445 16.8242 18.8086 15.3398C19.3945 13.8555 19.6875 12.7422 19.6875 12ZM22.5 12C22.4219 13.7578 21.7969 15.7891 20.625 18.0938C19.4141 20.3984 18.0469 22.625 16.5234 24.7734C15 26.9609 13.7109 28.6992 12.6562 29.9883C12.2656 30.457 11.7969 30.6914 11.25 30.6914C10.7031 30.6914 10.2344 30.457 9.84375 29.9883C8.78906 28.6992 7.5 26.9609 5.97656 24.7734C4.45312 22.625 3.08594 20.3984 1.875 18.0938C0.703125 15.7891 0.078125 13.7578 0 12C0.078125 8.79688 1.17188 6.14062 3.28125 4.03125C5.39062 1.92188 8.04688 0.828125 11.25 0.75C14.4531 0.828125 17.1094 1.92188 19.2188 4.03125C21.3281 6.14062 22.4219 8.79688 22.5 12ZM13.125 12C13.125 11.4531 12.9492 11.0039 12.5977 10.6523C12.2461 10.3008 11.7969 10.125 11.25 10.125C10.7031 10.125 10.2539 10.3008 9.90234 10.6523C9.55078 11.0039 9.375 11.4531 9.375 12C9.375 12.5469 9.55078 12.9961 9.90234 13.3477C10.2539 13.6992 10.7031 13.875 11.25 13.875C11.7969 13.875 12.2461 13.6992 12.5977 13.3477C12.9492 12.9961 13.125 12.5469 13.125 12ZM6.5625 12C6.60156 10.2422 7.38281 8.89453 8.90625 7.95703C10.4688 7.09766 12.0312 7.09766 13.5938 7.95703C15.1172 8.89453 15.8984 10.2422 15.9375 12C15.8984 13.7578 15.1172 15.1055 13.5938 16.043C12.0312 16.9023 10.4688 16.9023 8.90625 16.043C7.38281 15.1055 6.60156 13.7578 6.5625 12Z" fill="white"/>
</svg>
