<svg width="16" height="12" viewBox="0 0 16 12" fill="none" xmlns="http://www.w3.org/2000/svg">
<path d="M2 1C1.70833 1 1.46875 1.09375 1.28125 1.28125C1.09375 1.46875 1 1.70833 1 2V3.25L7.125 7.71875C7.70833 8.11458 8.29167 8.11458 8.875 7.71875L15 3.25V2C15 1.70833 14.9062 1.46875 14.7188 1.28125C14.5312 1.09375 14.2917 1 14 1H2ZM1 4.5V10C1 10.2917 1.09375 10.5312 1.28125 10.7188C1.46875 10.9062 1.70833 11 2 11H14C14.2917 11 14.5312 10.9062 14.7188 10.7188C14.9062 10.5312 15 10.2917 15 10V4.5L9.46875 8.53125C9.03125 8.86458 8.54167 9.03125 8 9.03125C7.45833 9.03125 6.96875 8.86458 6.53125 8.53125L1 4.5ZM0 2C0.0208333 1.4375 0.21875 0.96875 0.59375 0.59375C0.96875 0.21875 1.4375 0.0208333 2 0H14C14.5625 0.0208333 15.0312 0.21875 15.4062 0.59375C15.7812 0.96875 15.9792 1.4375 16 2V10C15.9792 10.5625 15.7812 11.0312 15.4062 11.4062C15.0312 11.7812 14.5625 11.9792 14 12H2C1.4375 11.9792 0.96875 11.7812 0.59375 11.4062C0.21875 11.0312 0.0208333 10.5625 0 10V2Z" fill="white"/>
</svg>
