<svg xmlns="http://www.w3.org/2000/svg" version="1.1" xmlns:xlink="http://www.w3.org/1999/xlink" width="512" height="512" x="0" y="0" viewBox="0 0 512 512" style="enable-background:new 0 0 512 512" xml:space="preserve" class=""><g><path d="M503.676 53.583c-6.579-11.287-19.176-17.229-32.061-15.135L325.782 62.119c-6.848-30.175-33.773-52.126-65.4-52.126-36.993 0-67.089 30.096-67.089 67.089s30.096 67.089 67.089 67.089c21.239 0 40.985-9.939 53.643-26.791a24.38 24.38 0 0 0 2.224-.068l72.848-5.769-4.756 3.74-.323-.212a7 7 0 0 0-8.459.593l-42.594 37.404c-1.428 1.253-3.112 1.539-4.872.824l-23.892-9.703a6.978 6.978 0 0 0-3.061-.501l-66.166 4.051a7 7 0 0 0-3.663 1.307l-5.611 4.04c-7.688-8.968-19.085-14.667-31.795-14.667-23.094 0-41.883 18.789-41.883 41.882 0 1.119.057 2.225.144 3.322-4.659 1.915-8.988 4.429-13.296 7.732l-71.79 55.039a6.996 6.996 0 0 0-1.737 9.157l-50.618 41.924C6.651 304.162 2.862 313.95 4.33 324.33c1.437 10.156 7.561 18.265 17.243 22.833l163.605 77.167c-4.168 16.587-9.763 35.06-16.669 57.845l-3.271 10.807a6.998 6.998 0 0 0 6.7 9.025h218.077a7 7 0 0 0 6.889-8.24c-14.343-79.682-8.524-120.114-1.787-166.931 2.467-17.142 5.018-34.868 6.778-55.658.594-7.006.759-13.455.905-19.144.489-19.038.812-31.615 14.629-48.835l29.979-37.366a6.991 6.991 0 0 0-.543-9.358l54.185-67.534c8.176-10.19 9.207-24.069 2.627-35.357zm-243.294 76.588c-29.273 0-53.089-23.815-53.089-53.089s23.815-53.089 53.089-53.089c24.726 0 45.82 16.949 51.549 40.374l-2.046.332c-13.77 2.234-23.382 15.565-21.428 29.718 1.049 7.597 5.353 14.137 11.273 18.275-9.992 11.053-24.181 17.479-39.349 17.479zm-66.478 22.248c15.375 0 27.883 12.508 27.883 27.882s-12.508 27.883-27.883 27.883-27.883-12.508-27.883-27.883 12.508-27.882 27.883-27.882zM18.191 322.369c-.783-5.535 1.157-10.547 5.463-14.112l49.838-41.277 22.414 31.303-15.842 11.46a7.001 7.001 0 0 0 .708 11.793l130.361 72.286c9.344 5.181 9.925 12.39 7.353 17.409-2.65 5.17-9.262 8.963-17.508 5.072L27.545 334.5c-3.733-1.761-8.388-5.295-9.354-12.131zm78.999-7.737 6.866-4.967.75 1.048a7 7 0 0 0 9.467 1.819l53.392-34.195c17.47 37.491 24.926 63.492 25.405 89.46l-95.88-53.166zm309.318-120.194c-16.771 20.902-17.203 37.74-17.704 57.236-.148 5.765-.301 11.726-.859 18.322-1.727 20.383-4.248 37.903-6.687 54.846-6.675 46.382-12.469 86.66.43 163.165H181.37l.537-1.771c6.618-21.838 12.044-39.749 16.213-55.992 3.24 1.14 6.403 1.659 9.423 1.659 10.522 0 19.295-6.271 23.402-14.288 5.537-10.807 3.824-26.694-13.023-36.036l-10.911-6.05c1.021-32.57-7.38-63.106-30.116-110.408a7 7 0 0 0-10.084-2.863l-54.492 34.9-31.346-43.776 66.413-50.917c2.72-2.085 5.439-3.752 8.287-5.092 6.548 14.606 21.216 24.81 38.23 24.81 23.094 0 41.883-18.789 41.883-41.883a41.64 41.64 0 0 0-2.856-15.171l4.918-3.541 62.558-3.83 22.418 9.104c6.698 2.72 13.942 1.495 19.377-3.275l38.59-33.888 50.875 33.379-25.159 31.358zM490.129 80.18l-54.935 68.47-38.507-25.264 19.258-15.144a7 7 0 0 0 2.192-8.051 7.009 7.009 0 0 0-7.072-4.429l-95.923 7.596c-6.074.48-11.939-4.49-12.818-10.854-.907-6.57 3.582-12.974 9.803-13.983l161.73-26.252c7.239-1.18 14.03 2.031 17.724 8.366 3.693 6.336 3.138 13.826-1.452 19.546zM301.571 331.27a6.998 6.998 0 0 1-3.178 9.375l-18.693 9.228a7.008 7.008 0 0 1-5.022.453l-22.249-6.356a7 7 0 0 1-4.808-8.653 6.997 6.997 0 0 1 8.653-4.808l19.65 5.614 16.271-8.032a7 7 0 0 1 9.375 3.178zm-3.502-22.368a6.998 6.998 0 0 1-3.178 9.375l-18.693 9.228a7.008 7.008 0 0 1-5.022.453l-22.249-6.356a7 7 0 0 1-4.808-8.653 6.996 6.996 0 0 1 8.653-4.808l19.65 5.614 16.271-8.032a6.999 6.999 0 0 1 9.375 3.178zm5.73 45.364a6.998 6.998 0 0 1-3.178 9.375l-18.693 9.228a7.008 7.008 0 0 1-5.022.453l-22.249-6.356a7 7 0 0 1 3.845-13.461l19.65 5.614 16.271-8.032a7 7 0 0 1 9.375 3.178zm-8.331-68.178a6.998 6.998 0 0 1-3.178 9.375l-18.693 9.228a7.008 7.008 0 0 1-5.022.453l-22.249-6.356a7 7 0 0 1 3.845-13.461l19.65 5.614 16.271-8.032a7 7 0 0 1 9.375 3.178zm-3.179-70.721a7 7 0 0 1-3.178 9.375l-18.693 9.228a7.008 7.008 0 0 1-5.022.453l-22.249-6.356a7 7 0 0 1 3.845-13.461l19.65 5.614 16.271-8.032a7 7 0 0 1 9.375 3.179zm-1.06-23.574a6.999 6.999 0 0 1-3.178 9.375l-18.693 9.228a7.008 7.008 0 0 1-5.022.453l-22.249-6.356a7 7 0 0 1 3.845-13.461l19.65 5.614 16.271-8.032a7 7 0 0 1 9.375 3.179zm3.179 70.721a6.999 6.999 0 0 1-3.178 9.375l-18.692 9.228a7.008 7.008 0 0 1-5.022.453l-22.25-6.356a7 7 0 0 1-4.808-8.653 6.997 6.997 0 0 1 8.653-4.808l19.651 5.614 16.27-8.032a7 7 0 0 1 9.375 3.178zm-58.188-90.249a7 7 0 0 1 8.653-4.808l19.65 5.614 16.271-8.032a7 7 0 0 1 9.375 3.178 6.998 6.998 0 0 1-3.178 9.375l-18.693 9.228a7.008 7.008 0 0 1-5.022.453l-22.249-6.357a7 7 0 0 1-4.808-8.653zm57.128 66.675a6.999 6.999 0 0 1-3.178 9.375l-18.692 9.228a7.008 7.008 0 0 1-5.022.453l-22.25-6.357a7 7 0 0 1 3.845-13.461l19.651 5.614 16.27-8.032a7 7 0 0 1 9.375 3.178zM124.677 83.731a7 7 0 0 1 13.523-3.623l4.124 15.391 10.034-5.793a7 7 0 0 1 10.262 4.25l6.912 25.795a7 7 0 0 1-13.523 3.624l-4.551-16.983-10.034 5.793a7 7 0 0 1-10.262-4.251zm-50.57 67.673a7 7 0 0 1 9.562-2.562l13.799 7.967 2.999-11.193a6.999 6.999 0 0 1 10.262-4.25l23.127 13.353a7 7 0 0 1 2.562 9.562 6.997 6.997 0 0 1-9.562 2.562l-15.227-8.792-2.999 11.193a6.999 6.999 0 0 1-10.262 4.25l-21.699-12.528a7 7 0 0 1-2.562-9.562zm105.723 28.897c0-7.752 6.323-14.075 14.075-14.075s14.074 6.323 14.074 14.075-6.323 14.074-14.074 14.074-14.075-6.322-14.075-14.074zm108.173 213.667 19.57-9.661a6.999 6.999 0 0 0 3.178-9.375 7 7 0 0 0-9.375-3.178l-19.562 9.657-17.71-5.06a6.998 6.998 0 0 0-8.653 4.808 7 7 0 0 0 4.808 8.653l6.333 1.809c-20.106 3.056-35.563 20.459-35.563 41.405 0 23.094 18.789 41.883 41.883 41.883s41.883-18.789 41.883-41.883c0-17.774-11.135-32.987-26.791-39.058zm-15.092 66.941c-15.375 0-27.883-12.508-27.883-27.883s12.508-27.882 27.883-27.882 27.883 12.508 27.883 27.882-12.508 27.883-27.883 27.883zm14.074-27.883c0 7.752-6.322 14.074-14.074 14.074s-14.075-6.322-14.075-14.074 6.323-14.074 14.075-14.074 14.074 6.323 14.074 14.074zm85.807 43.772a7 7 0 0 1-9.869.777l-12.117-10.348-4.987 10.458a7 7 0 0 1-10.864 2.309l-20.307-17.344a7 7 0 0 1 9.092-10.646l13.37 11.419 4.987-10.458a7 7 0 0 1 10.864-2.309l19.054 16.273a7.001 7.001 0 0 1 .777 9.869zm-58.144-63.404a7 7 0 0 1 5.137-8.463l17.079-4.178-5.572-10.159a7 7 0 0 1 4.473-10.166l24.338-5.955a6.997 6.997 0 0 1 8.462 5.136 7 7 0 0 1-5.136 8.463l-15.477 3.787 5.572 10.159a7 7 0 0 1-4.473 10.166l-25.94 6.346a7.004 7.004 0 0 1-8.463-5.136z" fill="#068bcc" opacity="1" data-original="#000000" class=""></path></g></svg>