<svg width="17" height="17" viewBox="0 0 17 17" fill="none" xmlns="http://www.w3.org/2000/svg">
<path d="M11.75 9.59375L15.25 11.0938C15.5208 11.2188 15.7292 11.4167 15.875 11.6875C16 11.9375 16.0312 12.2083 15.9688 12.5L15.2188 16C15.0521 16.625 14.6458 16.9583 14 17C13.8125 17 13.625 17 13.4375 17C13.2917 16.9792 13.1458 16.9688 13 16.9688C10.5625 16.7604 8.36458 16.0208 6.40625 14.75C4.44792 13.4792 2.89583 11.8229 1.75 9.78125C0.604167 7.76042 0.0208333 5.5 0 3C0.0416667 2.35417 0.375 1.94792 1 1.78125L4.5 1.03125C4.79167 0.96875 5.0625 1.01042 5.3125 1.15625C5.58333 1.28125 5.78125 1.47917 5.90625 1.75L7.40625 5.25C7.61458 5.8125 7.48958 6.30208 7.03125 6.71875L5.78125 7.75C6.63542 9.20833 7.79167 10.3646 9.25 11.2188L10.2812 9.96875C10.6979 9.51042 11.1875 9.38542 11.75 9.59375ZM14 16C14.125 16 14.2083 15.9375 14.25 15.8125L15 12.3125C15.0208 12.1667 14.9688 12.0729 14.8438 12.0312L11.3438 10.5312C11.2396 10.4896 11.1458 10.5104 11.0625 10.5938L10.0312 11.875C9.65625 12.25 9.22917 12.3229 8.75 12.0938C7.125 11.1562 5.84375 9.875 4.90625 8.25C4.67708 7.77083 4.75 7.34375 5.125 6.96875L6.40625 5.9375C6.48958 5.85417 6.51042 5.76042 6.46875 5.65625L4.96875 2.15625C4.90625 2.03125 4.8125 1.97917 4.6875 2L1.1875 2.75C1.0625 2.79167 1 2.875 1 3C1.02083 5.41667 1.61458 7.60417 2.78125 9.5625C3.92708 11.5208 5.47917 13.0729 7.4375 14.2188C9.39583 15.3854 11.5833 15.9792 14 16Z" fill="white"/>
</svg>
