<svg width="15" height="13" viewBox="0 0 15 13" fill="none" xmlns="http://www.w3.org/2000/svg">
<path d="M14.2812 7.03125L8.78125 12.2812C8.40625 12.5729 8.05208 12.5729 7.71875 12.2812C7.42708 11.9062 7.42708 11.5521 7.71875 11.2188L11.875 7.25H1.25C0.791667 7.20833 0.541667 6.95833 0.5 6.5C0.541667 6.04167 0.791667 5.79167 1.25 5.75H11.875L7.75 1.78125C7.4375 1.44792 7.42708 1.09375 7.71875 0.71875C8.05208 0.427083 8.40625 0.427083 8.78125 0.71875L14.2812 5.96875C14.4271 6.11458 14.5 6.29167 14.5 6.5C14.5 6.70833 14.4271 6.88542 14.2812 7.03125Z" fill="#4FA997"/>
</svg>
