<svg xmlns="http://www.w3.org/2000/svg" version="1.1" xmlns:xlink="http://www.w3.org/1999/xlink" width="512" height="512" x="0" y="0" viewBox="0 0 64 64" style="enable-background:new 0 0 512 512" xml:space="preserve" class=""><g><path d="M46.54 40.87a45.89 45.89 0 0 0-5.75-1.22v-1a4.78 4.78 0 0 0 .65.07 4.9 4.9 0 0 0 4.64-5.11V22.48c0-4.54-3.27-8.23-7.29-8.23h-1.86a8 8 0 1 0-9.86 0h-1.86c-4 0-7.29 3.69-7.29 8.23v11.14a4.9 4.9 0 0 0 4.64 5.11 4.78 4.78 0 0 0 .65-.07v1C12.09 41.33 5 45.89 5 51.5 5 58.63 16.61 64 32 64s27-5.37 27-12.5c0-4.5-4.54-8.37-12.46-10.63zM32 4a4 4 0 1 1-4 4 4 4 0 0 1 4-4zm-9.44 30.73c-.25 0-.64-.44-.64-1.11V22.48c0-2.33 1.47-4.23 3.29-4.23h13.58c1.82 0 3.29 1.9 3.29 4.23v11.14c0 .67-.39 1.11-.64 1.11s-.65-.44-.65-1.11V22.48a2 2 0 1 0-4 0v29c0 1.07-.65 2-1.39 2s-1.4-.94-1.4-2v-18.3a2 2 0 0 0-4 0v18.25c0 1.07-.65 2-1.4 2s-1.39-.94-1.39-2V22.48a2 2 0 1 0-4 0v11.14c0 .67-.39 1.11-.65 1.11zM32 60c-13.16 0-23-4.49-23-8.5 0-2.77 5-6.29 14.21-7.8v7.73c0 3.31 2.42 6 5.39 6a5.05 5.05 0 0 0 3.4-1.34 5.05 5.05 0 0 0 3.4 1.35c3 0 5.39-2.7 5.39-6V43.7a42.58 42.58 0 0 1 4.65 1C51.25 46.37 55 49 55 51.5c0 4.01-9.84 8.5-23 8.5z" fill="#068bcc" opacity="1" data-original="#000000" class=""></path></g></svg>